<?xml version="1.0" encoding="utf-8"?>
<!-- Generator: Adobe Illustrator 24.1.1, SVG Export Plug-In . SVG Version: 6.00 Build 0)  -->
<svg version="1.1" id="e547938f-82f5-44e4-b157-d028021b2880"
	 xmlns="http://www.w3.org/2000/svg" xmlns:xlink="http://www.w3.org/1999/xlink" x="0px" y="0px" viewBox="0 0 1053.5 823.2"
	 style="enable-background:new 0 0 1053.5 823.2;" xml:space="preserve">
<style type="text/css">
	.st0{fill:#F4CC73;}
	.st1{fill:#F2F2F2;}
	.st2{fill:#4E73DF;}
	.st3{fill:#3F3D56;}
	.st4{fill:#1CC88A;}
	.st5{fill:#36B9CC;}
	.st6{opacity:0.2;enable-background:new    ;}
	.st7{fill:#D0CDE1;}
	.st8{fill:#2F2E41;}
	.st9{fill:#A0616A;}
	.st10{fill:none;stroke:#000000;stroke-miterlimit:10;}
</style>
<path class="st0" d="M354.2,727.5C204.6,685.3,46.9,640,7.2,457.9s136.5-530.2,203-389.7c67,141.6,239,223.7,347,269.6
	C885.6,477.6,737.1,835.7,354.2,727.5z"/>
<path class="st1" d="M354.6,726.1c-81-22.9-165.6-45.8-234.7-95.9c-34.3-24.9-63.2-56.8-83.1-94.3C17,498.6,5.5,457.5,3.3,415.4
	C1.5,378,6,340.3,13.6,303.7c8-38.3,19.5-75.7,34.2-112c13.1-32.3,28.6-64,48.1-93c13.9-20.8,30.7-42.9,53.1-55.2
	c16.3-9,34-8.5,47.2,5.6c10.5,11.3,15.7,26.5,23.1,39.7c11.4,20,24.6,38.8,39.6,56.3c59.5,70,140.2,119.7,222,159.7
	c18,8.8,36.3,17.2,54.6,25.2c18.6,8.2,37.4,15.9,55.4,25.4c33,17.4,64,39.3,89.4,66.8c39.3,42.5,63.8,99.6,54.6,158
	c-8.8,55.8-46.2,101.8-94.4,129.4C574.9,747.2,495.2,752,422,740.8C399.2,737.3,376.7,732.4,354.6,726.1c-0.8-0.2-1.6,0.3-1.8,1.1
	c-0.2,0.8,0.3,1.5,1,1.8c44.1,12.4,89.8,20.1,135.7,20.1c37.2,0,74.7-5.2,110-17.6c29.1-10.2,56.6-25.4,79.7-46
	c20.5-18.3,37.2-40.9,47.8-66.3c10.2-24.6,14.5-51.2,12.3-77.8c-2.3-28.5-11.8-55.9-26.2-80.5c-17.1-29-40.7-53.7-67.3-74.1
	c-16-12.2-32.9-23.1-50.7-32.6c-18.5-10-37.9-18-57.1-26.4c-39.3-17.2-78-35.8-115.3-57.1c-41.6-23.7-81.6-50.7-117.4-82.6
	c-36-32.1-67.8-69.5-89.8-112.6c-9.2-18.1-19.9-40.5-43.3-41.5c-20.4-0.9-38.7,14.9-51.9,28.7c-21.5,22.6-38.1,50-52.4,77.6
	C50.5,174.7,36,210.6,25,247.5C13.5,285.1,5.2,323.8,1.6,363c-3.4,37-1.9,74.1,7.7,110.1c11.5,43.5,32.1,84.2,62.2,117.7
	c27.8,31.1,62.6,55.1,99.7,73.9c38.6,19.6,79.8,33.9,121.1,46.5c20.4,6.2,41,12,61.5,17.8c0.8,0.2,1.6-0.3,1.8-1.1
	C355.8,727.1,355.3,726.3,354.6,726.1z"/>
<path class="st2" d="M655.5,152.7c0,67.2-39.9,90.7-89.2,90.8c-1.1,0-2.3,0-3.4,0c-2.3,0-4.5-0.2-6.8-0.3
	c-44.5-3.1-79.1-27.8-79.1-90.3c0-64.7,82.6-146.4,88.8-152.5c0,0,0,0,0,0c0.2-0.2,0.4-0.3,0.4-0.3S655.5,85.5,655.5,152.7z"/>
<path class="st3" d="M563,233.2l32.6-45.6L563,238.2l-0.1,5.2c-2.3,0-4.5-0.2-6.8-0.3l3.5-67.3l0-0.5l0.1-0.1l0.3-6.4l-32.8-50.7
	l32.9,46l0.1,1.3l2.6-50.8l-28.1-52.4l28.5,43.5l2.7-105.4l0-0.4l0,0.3l-0.4,83.1l27.9-33l-28.1,40.1l-0.7,45.5l26.1-43.7
	l-26.2,50.4l-0.4,25.3l37.9-60.8l-38,69.6L563,233.2z"/>
<path class="st3" d="M660.7,141.7H234v614h426.7c11.7,0,21.3-9.5,21.3-21.3c0,0,0,0,0,0V163C682,151.3,672.5,141.7,660.7,141.7
	C660.7,141.7,660.7,141.7,660.7,141.7z M257,744.7c-6.1,0-11-4.9-11-11s4.9-11,11-11s11,4.9,11,11C268,739.8,263.1,744.7,257,744.7
	C257,744.7,257,744.7,257,744.7L257,744.7z M257,706.7c-6.1,0-11-4.9-11-11s4.9-11,11-11s11,4.9,11,11
	C268,701.8,263.1,706.7,257,706.7C257,706.7,257,706.7,257,706.7L257,706.7z M257,668.7c-6.1,0-11-4.9-11-11s4.9-11,11-11
	s11,4.9,11,11C268,663.8,263.1,668.7,257,668.7C257,668.7,257,668.7,257,668.7L257,668.7z M257,630.7c-6.1,0-11-4.9-11-11
	s4.9-11,11-11s11,4.9,11,11C268,625.8,263.1,630.7,257,630.7C257,630.7,257,630.7,257,630.7L257,630.7z M257,592.7
	c-6.1,0-11-4.9-11-11s4.9-11,11-11s11,4.9,11,11C268,587.8,263.1,592.7,257,592.7C257,592.7,257,592.7,257,592.7L257,592.7z
	 M257,554.7c-6.1,0-11-4.9-11-11s4.9-11,11-11s11,4.9,11,11C268,549.8,263.1,554.7,257,554.7C257,554.7,257,554.7,257,554.7
	L257,554.7z M257,516.7c-6.1,0-11-4.9-11-11s4.9-11,11-11s11,4.9,11,11C268,511.8,263.1,516.7,257,516.7
	C257,516.7,257,516.7,257,516.7L257,516.7z M257,478.7c-6.1,0-11-4.9-11-11s4.9-11,11-11s11,4.9,11,11
	C268,473.8,263.1,478.7,257,478.7C257,478.7,257,478.7,257,478.7L257,478.7z M257,440.7c-6.1,0-11-4.9-11-11s4.9-11,11-11
	s11,4.9,11,11C268,435.8,263.1,440.7,257,440.7C257,440.7,257,440.7,257,440.7L257,440.7z M257,402.7c-6.1,0-11-4.9-11-11
	s4.9-11,11-11s11,4.9,11,11C268,397.8,263.1,402.7,257,402.7C257,402.7,257,402.7,257,402.7L257,402.7z M257,364.7
	c-6.1,0-11-4.9-11-11s4.9-11,11-11s11,4.9,11,11C268,359.8,263.1,364.7,257,364.7C257,364.7,257,364.7,257,364.7L257,364.7z
	 M257,326.7c-6.1,0-11-4.9-11-11s4.9-11,11-11s11,4.9,11,11C268,321.8,263.1,326.7,257,326.7C257,326.7,257,326.7,257,326.7
	L257,326.7z M257,288.7c-6.1,0-11-4.9-11-11s4.9-11,11-11s11,4.9,11,11C268,283.8,263.1,288.7,257,288.7
	C257,288.7,257,288.7,257,288.7L257,288.7z M257,250.7c-6.1,0-11-4.9-11-11s4.9-11,11-11s11,4.9,11,11
	C268,245.8,263.1,250.7,257,250.7C257,250.7,257,250.7,257,250.7L257,250.7z M257,212.7c-6.1,0-11-4.9-11-11s4.9-11,11-11
	s11,4.9,11,11C268,207.8,263.1,212.7,257,212.7C257,212.7,257,212.7,257,212.7L257,212.7z M257,174.7c-6.1,0-11-4.9-11-11
	s4.9-11,11-11s11,4.9,11,11C268,169.8,263.1,174.7,257,174.7C257,174.7,257,174.7,257,174.7L257,174.7z"/>
<path d="M236,542.7c-4.3,0-26-0.2-26-4.5c0-3.9,18.4-4.4,24-4.5l0,2c-12.2,0.1-20.1,1.5-21.8,2.5c1.8,1.1,10.6,2.5,23.8,2.5
	c12.6,0,21.2-1.3,23.5-2.4c-1.1-0.4-3.7-1-10.4-1.8l0.2-2c11.7,1.4,12.6,2.4,12.6,3.7C262,542.5,240.3,542.7,236,542.7z"/>
<path d="M236,551.7c-4.3,0-26-0.2-26-4.5c0-3.9,18.4-4.4,24-4.5l0,2c-12.2,0.1-20.1,1.5-21.8,2.5c1.8,1.1,10.6,2.5,23.8,2.5
	c12.3,0,20.8-1.2,23.3-2.3c-2.3-0.6-7.9-1.3-11.1-1.6l-2.1-0.2l0.2-2l2,0.2c12.2,1.4,13.6,2,13.6,3.4
	C262,551.5,240.3,551.7,236,551.7z"/>
<path d="M236,505.7c-4.3,0-26-0.2-26-4.5c0-3.9,18.4-4.4,24-4.5l0,2c-12.2,0.1-20.1,1.5-21.8,2.5c1.8,1.1,10.6,2.5,23.8,2.5
	c12.6,0,21.2-1.3,23.5-2.4c-1.1-0.4-3.7-1-10.4-1.8l0.2-2c11.7,1.4,12.6,2.4,12.6,3.7C262,505.5,240.3,505.7,236,505.7z"/>
<path d="M236,514.7c-4.3,0-26-0.2-26-4.5c0-3.9,18.4-4.4,24-4.5l0,2c-12.2,0.1-20.1,1.5-21.8,2.5c1.8,1.1,10.6,2.5,23.8,2.5
	c12.3,0,20.8-1.2,23.3-2.3c-2.3-0.6-7.9-1.3-11.1-1.6l-2.1-0.2l0.2-2l2,0.2c12.2,1.4,13.6,2,13.6,3.4
	C262,514.5,240.3,514.7,236,514.7z"/>
<path d="M236,466.7c-4.3,0-26-0.2-26-4.5c0-3.9,18.4-4.4,24-4.5l0,2c-12.2,0.1-20.1,1.5-21.8,2.5c1.8,1.1,10.6,2.5,23.8,2.5
	c12.6,0,21.2-1.3,23.5-2.4c-1.1-0.4-3.7-1-10.4-1.8l0.2-2c11.7,1.4,12.6,2.4,12.6,3.7C262,466.5,240.3,466.7,236,466.7z"/>
<path d="M236,475.7c-4.3,0-26-0.2-26-4.5c0-3.9,18.4-4.4,24-4.5l0,2c-12.2,0.1-20.1,1.5-21.8,2.5c1.8,1.1,10.6,2.5,23.8,2.5
	c12.3,0,20.8-1.2,23.3-2.3c-2.3-0.6-7.9-1.3-11.1-1.6l-2.1-0.2l0.2-2l2,0.2c12.2,1.4,13.6,2,13.6,3.4
	C262,475.5,240.3,475.7,236,475.7z"/>
<path d="M236,428.7c-4.3,0-26-0.2-26-4.5c0-3.9,18.4-4.4,24-4.5l0,2c-12.2,0.1-20.1,1.5-21.8,2.5c1.8,1.1,10.6,2.5,23.8,2.5
	c12.6,0,21.2-1.3,23.5-2.4c-1.1-0.4-3.7-1-10.4-1.8l0.2-2c11.7,1.4,12.6,2.4,12.6,3.7C262,428.5,240.3,428.7,236,428.7z"/>
<path d="M236,437.7c-4.3,0-26-0.2-26-4.5c0-3.9,18.4-4.4,24-4.5l0,2c-12.2,0.1-20.1,1.5-21.8,2.5c1.8,1.1,10.6,2.5,23.8,2.5
	c12.3,0,20.8-1.2,23.3-2.3c-2.3-0.6-7.9-1.3-11.1-1.6l-2.1-0.2l0.2-2l2,0.2c12.2,1.4,13.6,2,13.6,3.4
	C262,437.5,240.3,437.7,236,437.7z"/>
<path d="M236,390.7c-4.3,0-26-0.2-26-4.5c0-3.9,18.4-4.4,24-4.5l0,2c-12.2,0.1-20.1,1.5-21.8,2.5c1.8,1.1,10.6,2.5,23.8,2.5
	c12.6,0,21.2-1.3,23.5-2.4c-1.1-0.4-3.7-1-10.4-1.8l0.2-2c11.7,1.4,12.6,2.4,12.6,3.6C262,390.5,240.3,390.7,236,390.7z"/>
<path d="M236,399.7c-4.3,0-26-0.2-26-4.5c0-3.9,18.4-4.4,24-4.5l0,2c-12.2,0.1-20.1,1.5-21.8,2.5c1.8,1.1,10.6,2.5,23.8,2.5
	c12.3,0,20.8-1.2,23.3-2.3c-2.3-0.6-7.9-1.3-11.1-1.6l-2-0.2l0.2-2l2,0.2c12.2,1.4,13.6,2,13.6,3.4C262,399.5,240.3,399.7,236,399.7
	z"/>
<path d="M236,352.7c-4.3,0-26-0.2-26-4.5c0-3.9,18.4-4.4,24-4.5l0,2c-12.2,0.1-20.1,1.5-21.8,2.5c1.8,1.1,10.6,2.5,23.8,2.5
	c12.6,0,21.2-1.3,23.5-2.4c-1.1-0.4-3.7-1-10.4-1.8l0.2-2c11.7,1.4,12.6,2.4,12.6,3.6C262,352.5,240.3,352.7,236,352.7z"/>
<path d="M236,361.7c-4.3,0-26-0.2-26-4.5c0-3.9,18.4-4.4,24-4.5l0,2c-12.2,0.1-20.1,1.5-21.8,2.5c1.8,1.1,10.6,2.5,23.8,2.5
	c12.3,0,20.8-1.2,23.3-2.3c-2.3-0.6-7.9-1.3-11.1-1.6l-2-0.2l0.2-2l2,0.2c12.2,1.4,13.6,2,13.6,3.4C262,361.5,240.3,361.7,236,361.7
	z"/>
<path d="M236,314.7c-4.3,0-26-0.2-26-4.5c0-3.9,18.4-4.4,24-4.5l0,2c-12.2,0.1-20.1,1.5-21.8,2.5c1.8,1.1,10.6,2.5,23.8,2.5
	c12.6,0,21.2-1.3,23.5-2.4c-1.1-0.4-3.7-1-10.4-1.8l0.2-2c11.7,1.4,12.6,2.4,12.6,3.6C262,314.5,240.3,314.7,236,314.7z"/>
<path d="M236,323.7c-4.3,0-26-0.2-26-4.5c0-3.9,18.4-4.4,24-4.5l0,2c-12.2,0.1-20.1,1.5-21.8,2.5c1.8,1.1,10.6,2.5,23.8,2.5
	c12.3,0,20.8-1.2,23.3-2.3c-2.3-0.6-7.9-1.3-11.1-1.6l-2-0.2l0.2-2l2,0.2c12.2,1.4,13.6,2,13.6,3.4C262,323.5,240.3,323.7,236,323.7
	z"/>
<path d="M236,276.7c-4.3,0-26-0.2-26-4.5c0-3.9,18.4-4.4,24-4.5l0,2c-12.2,0.1-20.1,1.5-21.8,2.5c1.8,1.1,10.6,2.5,23.8,2.5
	c12.6,0,21.2-1.3,23.5-2.4c-1.1-0.4-3.7-1-10.4-1.8l0.2-2c11.7,1.4,12.6,2.4,12.6,3.6C262,276.5,240.3,276.7,236,276.7z"/>
<path d="M236,285.7c-4.3,0-26-0.2-26-4.5c0-3.9,18.4-4.4,24-4.5l0,2c-12.2,0.1-20.1,1.5-21.8,2.5c1.8,1.1,10.6,2.5,23.8,2.5
	c12.3,0,20.8-1.2,23.3-2.3c-2.3-0.6-7.9-1.3-11.1-1.6l-2-0.2l0.2-2l2,0.2c12.2,1.4,13.6,2,13.6,3.4C262,285.5,240.3,285.7,236,285.7
	z"/>
<path d="M236,238.7c-4.3,0-26-0.2-26-4.5c0-3.9,18.4-4.4,24-4.5l0,2c-12.2,0.1-20.1,1.5-21.8,2.5c1.8,1.1,10.6,2.5,23.8,2.5
	c12.6,0,21.2-1.3,23.5-2.4c-1.1-0.4-3.7-1-10.4-1.8l0.2-2c11.7,1.4,12.6,2.4,12.6,3.6C262,238.5,240.3,238.7,236,238.7z"/>
<path d="M236,247.7c-4.3,0-26-0.2-26-4.5c0-3.9,18.4-4.4,24-4.5l0,2c-12.2,0.1-20.1,1.5-21.8,2.5c1.8,1.1,10.6,2.5,23.8,2.5
	c12.3,0,20.8-1.2,23.3-2.3c-2.3-0.6-7.9-1.3-11.1-1.6l-2-0.2l0.2-2l2,0.2c12.2,1.4,13.6,2,13.6,3.4C262,247.5,240.3,247.7,236,247.7
	z"/>
<path d="M236,200.7c-4.3,0-26-0.2-26-4.5c0-3.9,18.4-4.4,24-4.5l0,2c-12.2,0.1-20.1,1.5-21.8,2.5c1.8,1.1,10.6,2.5,23.8,2.5
	c12.6,0,21.2-1.3,23.5-2.4c-1.1-0.4-3.7-1-10.4-1.8l0.2-2c11.7,1.4,12.6,2.4,12.6,3.6C262,200.5,240.3,200.7,236,200.7z"/>
<path d="M236,209.7c-4.3,0-26-0.2-26-4.5c0-3.9,18.4-4.4,24-4.5l0,2c-12.2,0.1-20.1,1.5-21.8,2.5c1.8,1.1,10.6,2.5,23.8,2.5
	c12.3,0,20.8-1.2,23.3-2.3c-2.3-0.6-7.9-1.3-11.1-1.6l-2-0.2l0.2-2l2,0.2c12.2,1.4,13.6,2,13.6,3.4C262,209.5,240.3,209.7,236,209.7
	z"/>
<path d="M236,162.7c-4.3,0-26-0.2-26-4.5c0-3.9,18.4-4.4,24-4.5l0,2c-12.2,0.1-20.1,1.5-21.8,2.5c1.8,1.1,10.6,2.5,23.8,2.5
	c12.6,0,21.2-1.3,23.5-2.4c-1.1-0.4-3.7-1-10.4-1.8l0.2-2c11.7,1.4,12.6,2.4,12.6,3.6C262,162.5,240.3,162.7,236,162.7z"/>
<path d="M236,171.7c-4.3,0-26-0.2-26-4.5c0-3.9,18.4-4.4,24-4.5l0,2c-12.2,0.1-20.1,1.5-21.8,2.5c1.8,1.1,10.6,2.5,23.8,2.5
	c12.3,0,20.8-1.2,23.3-2.3c-2.3-0.6-7.9-1.3-11.1-1.6l-2-0.2l0.2-2l2,0.2c12.2,1.4,13.6,2,13.6,3.4C262,171.5,240.3,171.7,236,171.7
	z"/>
<path d="M236,581.7c-4.3,0-26-0.2-26-4.5c0-3.9,18.4-4.4,24-4.5l0,2c-12.2,0.1-20.1,1.5-21.8,2.5c1.8,1.1,10.6,2.5,23.8,2.5
	c12.6,0,21.2-1.3,23.5-2.4c-1.1-0.4-3.7-1-10.4-1.8l0.2-2c11.7,1.4,12.6,2.4,12.6,3.7C262,581.5,240.3,581.7,236,581.7z"/>
<path d="M236,590.7c-4.3,0-26-0.2-26-4.5c0-3.9,18.4-4.4,24-4.5l0,2c-12.2,0.1-20.1,1.5-21.8,2.5c1.8,1.1,10.6,2.5,23.8,2.5
	c12.3,0,20.8-1.2,23.3-2.3c-2.3-0.6-7.9-1.3-11.1-1.6l-2.1-0.2l0.2-2l2,0.2c12.2,1.4,13.6,2,13.6,3.4
	C262,590.5,240.3,590.7,236,590.7z"/>
<path d="M236,618.7c-4.3,0-26-0.2-26-4.5c0-3.9,18.4-4.4,24-4.5l0,2c-12.2,0.1-20.1,1.5-21.8,2.5c1.8,1.1,10.6,2.5,23.8,2.5
	c12.6,0,21.2-1.3,23.5-2.4c-1.1-0.4-3.7-1-10.4-1.8l0.2-2c11.7,1.4,12.6,2.4,12.6,3.7C262,618.5,240.3,618.7,236,618.7z"/>
<path d="M236,627.7c-4.3,0-26-0.2-26-4.5c0-3.9,18.4-4.4,24-4.5l0,2c-12.2,0.1-20.1,1.5-21.8,2.5c1.8,1.1,10.6,2.5,23.8,2.5
	c12.3,0,20.8-1.2,23.3-2.3c-2.3-0.6-7.9-1.3-11.1-1.6l-2.1-0.2l0.2-2l2,0.2c12.2,1.4,13.6,2,13.6,3.4
	C262,627.5,240.3,627.7,236,627.7z"/>
<path d="M236,657.7c-4.3,0-26-0.2-26-4.5c0-3.9,18.4-4.4,24-4.5l0,2c-12.2,0.1-20.1,1.5-21.8,2.5c1.8,1.1,10.6,2.5,23.8,2.5
	c12.6,0,21.2-1.3,23.5-2.4c-1.1-0.4-3.7-1-10.4-1.8l0.2-2c11.7,1.4,12.6,2.4,12.6,3.7C262,657.5,240.3,657.7,236,657.7z"/>
<path d="M236,666.7c-4.3,0-26-0.2-26-4.5c0-3.9,18.4-4.4,24-4.5l0,2c-12.2,0.1-20.1,1.5-21.8,2.5c1.8,1.1,10.6,2.5,23.8,2.5
	c12.3,0,20.8-1.2,23.3-2.3c-2.3-0.6-7.9-1.3-11.1-1.6l-2.1-0.2l0.2-2l2,0.2c12.2,1.4,13.6,2,13.6,3.4
	C262,666.5,240.3,666.7,236,666.7z"/>
<path d="M236,694.7c-4.3,0-26-0.2-26-4.5c0-3.9,18.4-4.4,24-4.5l0,2c-12.2,0.1-20.1,1.5-21.8,2.5c1.8,1.1,10.6,2.5,23.8,2.5
	c12.6,0,21.2-1.3,23.5-2.4c-1.1-0.4-3.7-1-10.4-1.8l0.2-2c11.7,1.4,12.6,2.4,12.6,3.7C262,694.5,240.3,694.7,236,694.7z"/>
<path d="M236,703.7c-4.3,0-26-0.2-26-4.5c0-3.9,18.4-4.4,24-4.5l0,2c-12.2,0.1-20.1,1.5-21.8,2.5c1.8,1.1,10.6,2.5,23.8,2.5
	c12.3,0,20.8-1.2,23.3-2.3c-2.3-0.6-7.9-1.3-11.1-1.6l-2.1-0.2l0.2-2l2,0.2c12.2,1.4,13.6,2,13.6,3.4
	C262,703.5,240.3,703.7,236,703.7z"/>
<path d="M236,732.7c-4.3,0-26-0.2-26-4.5c0-3.9,18.4-4.4,24-4.5l0,2c-12.2,0.1-20.1,1.5-21.8,2.5c1.8,1.1,10.6,2.5,23.8,2.5
	c12.6,0,21.2-1.3,23.5-2.4c-1.1-0.4-3.7-1-10.4-1.8l0.2-2c11.7,1.4,12.6,2.4,12.6,3.7C262,732.5,240.3,732.7,236,732.7z"/>
<path d="M236,741.7c-4.3,0-26-0.2-26-4.5c0-3.9,18.4-4.4,24-4.5l0,2c-12.2,0.1-20.1,1.5-21.8,2.5c1.8,1.1,10.6,2.5,23.8,2.5
	c12.3,0,20.8-1.2,23.3-2.3c-2.3-0.6-7.9-1.3-11.1-1.6l-2.1-0.2l0.2-2l2,0.2c12.2,1.4,13.6,2,13.6,3.4
	C262,741.5,240.3,741.7,236,741.7z"/>
<rect x="48.5" y="754.2" class="st3" width="1005" height="2"/>
<path class="st3" d="M96.3,162.7c-6.6,0-12-5.4-12-12s5.4-12,12-12s12,5.4,12,12C108.3,157.3,103,162.7,96.3,162.7z M96.3,140.7
	c-5.5,0-10,4.5-10,10s4.5,10,10,10s10-4.5,10-10C106.3,145.2,101.9,140.7,96.3,140.7z"/>
<path class="st4" d="M139.5,475.2h-26v-26h26V475.2z M115.5,473.2h22v-22h-22V473.2z"/>
<path class="st4" d="M387.5,109.6l-17.3-19.4l19.4-17.3l17.3,19.4L387.5,109.6z M373,90.4l14.7,16.4L404,92.1l-14.7-16.4L373,90.4z"
	/>
<rect x="350.5" y="305.2" class="st5" width="251" height="114"/>
<path class="st1" d="M376.3,381.6c16.2-4.7,33.2-6.4,50-5c17.4,1.5,34.3,6.7,51.5,9.6c15.8,2.6,31.9,4,47.9,4.1
	c13.9,0.1,30.8,1.2,43.1-6.4c1.6-1,0.1-3.6-1.5-2.6c-7.1,4.4-15.3,5.1-23.5,5.6c-8.3,0.4-16.5,0.5-24.8,0.3
	c-16.7-0.5-33.4-2.4-49.8-5.6c-15.5-3.1-30.8-7.3-46.7-8.2c-15.9-0.9-31.8,1-47.1,5.4c-0.8,0.2-1.2,1.1-1,1.9
	C374.8,381.4,375.6,381.8,376.3,381.6L376.3,381.6z"/>
<path class="st1" d="M376.3,350.6c16.2-4.7,33.2-6.4,50-5c17.4,1.5,34.3,6.7,51.5,9.6c15.8,2.6,31.9,4,47.9,4.1
	c13.9,0.1,30.8,1.2,43.1-6.4c1.6-1,0.1-3.6-1.5-2.6c-7.1,4.4-15.3,5.1-23.5,5.6c-8.3,0.4-16.5,0.5-24.8,0.3
	c-16.7-0.5-33.4-2.4-49.8-5.6c-15.5-3.1-30.8-7.3-46.7-8.2c-15.9-0.9-31.8,1-47.1,5.4c-0.8,0.2-1.2,1.1-1,1.9
	C374.8,350.4,375.6,350.8,376.3,350.6L376.3,350.6z"/>
<path class="st6" d="M682,615.3v119.1c0,11.7-9.5,21.3-21.3,21.3c0,0,0,0,0,0H499.9L682,615.3z"/>
<path class="st6" d="M682,163v113.8L469.7,141.7h191.1C672.5,141.7,682,151.3,682,163C682,163,682,163,682,163z"/>
<rect x="734.6" y="399" class="st3" width="2" height="357.7"/>
<ellipse class="st4" cx="736" cy="637" rx="39" ry="89"/>
<ellipse class="st4" cx="736" cy="434" rx="39" ry="89"/>
<path class="st3" d="M736.9,361.2l-1.9-0.6c0.1-0.4,11.9-40.7-7.4-66.6C716.7,279.4,698,272,672,272v-2c26.7,0,45.9,7.7,57.2,22.9
	C749.1,319.6,737.1,360.8,736.9,361.2z"/>
<circle class="st2" cx="672" cy="271" r="25"/>
<circle class="st7" cx="671.8" cy="270.2" r="7.7"/>
<polygon class="st8" points="950.5,276.9 870.5,292.4 870.5,229.2 944,231.8 "/>
<path class="st9" d="M951.1,375.5l-2.6,27.1l14.2,78.6c0,0,0,52.9,12.9,45.1s1.3-45.1,1.3-45.1v-82.5l-2.6-23.2L951.1,375.5z"/>
<path class="st9" d="M833.8,379.4l-1.3,19.3l-37,92c0,0-29.5,27.1-12.3,39.1c17.1,12,27.5-29.2,27.5-29.2l40-78.6l3.9-42.5
	L833.8,379.4z"/>
<path class="st9" d="M814.4,554.7l2.6,51.6c0,0-10.3,51.6,1.3,95.4l6.4,46.4l18-2.6l6.4-59.3c0,0,3.9-51.6,2.6-58l9-61.9
	L814.4,554.7z"/>
<path class="st9" d="M899.5,570.2l20.6,70.9c0,0,2.6,30.9,18,60.6c15.5,29.7,18,45.1,18,45.1l20.6-2.6l-7.7-58c0,0-9-65.7-16.8-73.5
	l-7.7-41.3L899.5,570.2z"/>
<circle class="st9" cx="902.1" cy="240.7" r="30.9"/>
<path class="st10" d="M892.4,262.7"/>
<path class="st9" d="M890.5,264.7c0,0,11.6,23.2,0,29.7c-11.6,6.4-16.8,9-16.8,9s-15.5,58,19.3,52.9s58-65.7,58-65.7
	s-23.2-6.4-28.4-33.5L890.5,264.7z"/>
<path class="st8" d="M881.8,330.6c-4.4-2.8-7.1-7.7-7-12.9c0-4.6,1.5-9.2,4.2-12.9l4.9-6.8c0,0-24.4-6.2-41.1,20.9
	c-16.8,27.1-40,64.5-19.3,68.3c20.6,3.9,27.1,3.9,27.1,3.9s-1.3,15.5-15.5,29.7c-14.2,14.2-73.5,121.2-45.1,134.1
	s165,41.3,170.2,20.6s-25.8-149.5-25.8-149.5l10.3-41.3c0,0,81.2,2.6,70.9-14.2s-28.4-81.2-61.9-81.2h-6c0,0-26.8,31.2-45.8,41.8
	C895.6,334.5,887.9,334.4,881.8,330.6z"/>
<path class="st8" d="M953.7,744.2l-3.9,24.5l-1.3,30.9l9,1.3l2.6-16.8l5.2,27.1c0,0,9,14.2,24.5,11.6s-2.6-33.5-2.6-33.5l-7.7-47.7
	L953.7,744.2z"/>
<path class="st8" d="M846.7,741.6l3.9,24.5l1.3,30.9l-9,1.3l-2.6-16.8l-5.2,27.1c0,0-9,14.2-24.5,11.6s2.6-33.5,2.6-33.5l7.7-47.7
	L846.7,741.6z"/>
<circle class="st2" cx="889.9" cy="345.2" r="5.2"/>
<circle class="st2" cx="884.1" cy="379.4" r="5.2"/>
<circle class="st2" cx="878.9" cy="414.2" r="5.2"/>
<circle class="st2" cx="877.6" cy="450.3" r="5.2"/>
<circle class="st2" cx="869.9" cy="481.2" r="5.2"/>
<circle class="st2" cx="866" cy="516" r="5.2"/>
<path class="st8" d="M888.3,201.3c-8.6-1.5-17.9,3.4-20.6,10.7c-0.9,2.3-1.1,4.9-2.3,7.1c-1.3,2.4-3.7,4.1-5.4,6.3
	c-3,3.7-3.9,8.6-2.5,13.1c0.8,2.5,2.4,4.9,2.8,7.5c0.1,0.6,0.1,1.1-0.1,1.6c-0.3,0.6-0.8,1.1-1.4,1.5c-2.8,2.2-5.5,4.5-8,6.9
	c-2.6,2.4-5.3,5.6-4.3,8.8c0.4,1,0.9,2,1.5,2.9c2.5,4.3,2.5,9.6,0,13.8c-1.1,1.9-2.7,3.7-3.8,5.7c4.3-1.1,8.2-3.6,10.9-7.2
	c-2.3,5.7-10.6,7.9-14.1,13.1c2.4,0,4.7-0.6,6.8-1.7c-1.8,1.2-3.4,2.5-4.9,3.9c3.4-0.8,6.6-2.4,9.2-4.8c-2.3,1.7-4,4.2-4.7,7
	c9.6,0.2,19.1-2.1,28.4-4.4l15.6-3.8c1-0.1,2-0.6,2.7-1.3c0.5-0.7,0.6-1.5,0.5-2.3c-0.3-3.9-2.5-7.6-4.8-11c-1.8-2.5-3.7-5-5.7-7.3
	c-2.1-2.4-4.4-4.8-5.9-7.6c-3.3-6.1-2.5-13.2-1.7-19.8c0.2-2,0.6-4.1,2.1-5.5c0.6-0.6,1.4-1,2-1.5c2.2-1.8,2.6-4.8,3.3-7.4
	c1-3.8,3-7.4,5.6-10.3c1-1.1,2.3-2.2,3.9-2.1c3,0.1,5.2,2.2,6.8,4.4c1.4,2.3,2.6,4.7,3.6,7.2c2.8,6.1,7.4,12.2,14.5,14
	c2.8,0.7,5.8,0.7,8.2,2c2.3,1.3,4,3.5,4.7,6.1c0.6,2.5,0.7,5,0.4,7.5c-0.5,8.7-1.4,17.3-2.7,25.8l37.1,0.5
	c-0.7-4.9-2.5-9.7-5.3-13.8c4.3,0.5,8.7,0.6,13.1,0.3c-1.6-3-6.1-3.3-9.4-4.7c-0.4-0.2-0.9-0.4-1.2-0.8c-0.3-0.5-0.4-1.1-0.3-1.6
	l0.2-5.7c0.2-1.3,0-2.7-0.6-3.9c-0.7-1.2-2-2.1-2.7-3.3c-1.8-2.9,0.2-6.7-1.1-9.8c-1.1-2.6-4.2-4.1-6.8-5.6
	c-3.7-2.1-7.1-4.7-8.9-8.2c-0.8-1.6-1.3-3.4-2-5.1c-2.2-5.6-6.8-10.3-12.3-13.8c-5.7-3.4-11.9-5.8-18.4-7.2c-4.5-1.1-9.3-1.8-13.9-1
	s-9,3.6-10.2,7.6"/>
</svg>
