<?xml version="1.0" encoding="UTF-8"?>
<!DOCTYPE svg  PUBLIC '-//W3C//DTD SVG 1.1//EN'  'http://www.w3.org/Graphics/SVG/1.1/DTD/svg11.dtd' [
	<!ENTITY ns_extend "http://ns.adobe.com/Extensibility/1.0/">
	<!ENTITY ns_ai "http://ns.adobe.com/AdobeIllustrator/10.0/">
	<!ENTITY ns_graphs "http://ns.adobe.com/Graphs/1.0/">
	<!ENTITY ns_vars "http://ns.adobe.com/Variables/1.0/">
	<!ENTITY ns_imrep "http://ns.adobe.com/ImageReplacement/1.0/">
	<!ENTITY ns_sfw "http://ns.adobe.com/SaveForWeb/1.0/">
	<!ENTITY ns_custom "http://ns.adobe.com/GenericCustomNamespace/1.0/">
	<!ENTITY ns_adobe_xpath "http://ns.adobe.com/XPath/1.0/">
]>
<svg width="385.93px" height="311.85px" enable-background="new 0 0 385.926 311.852" version="1.1" viewBox="0 0 385.926 311.852" xml:space="preserve" xmlns="http://www.w3.org/2000/svg">
	<path d="m75.518 189.58c1e-3 0 1e-3 -0.01 0 0 1e-3 -2e-3 0-2e-3 0-2e-3h-3e-3v3e-3 -1e-3c0 1e-3 0 1e-3 1e-3 1e-3h2e-3c-1e-3 0-1e-3 0 0 0s1e-3 0 0 0c1e-3 0 1e-3 0 0 0zm-2e-3 0c-1e-3 0-1e-3 0 0 0h-1e-3v-1e-3h1e-3c-1e-3 -1e-3 -1e-3 -2e-3 0-2e-3s1e-3 0 0 0zm1e-3 0zm1e-3 0c-1e-3 0-1e-3 0 0 0-1e-3 0-1e-3 0 0 0zm0-0.01c-1e-3 0-1e-3 0 0 0-1e-3 0-1e-3 0 0 0z"/>
	<path d="m305.54 127.84c-3.706-1.151-7.024-0.914-9.591 0.685-2.954 1.84-4.901 5.427-5.812 10.63-5.388 0.058-13.444-0.898-19.398-3.172 2.248-6.935 0.149-10.155-4.231-13.281-7.078-5.05-51.821-8.765-78.31-9.005-26.367-0.24-70.942 3.845-78.712 8.195-4.329 2.422-7.019 5.947-6.109 15.097-2.706 1.023-12.412 2.978-16.841 3.104-7e-3 -3.5-1.132-6.219-3.232-7.683-1.75-1.22-3.993-1.452-5.997-0.621-2.94 1.219-5.273 5.031-7.478 9.032-0.349-1.682-0.972-2.896-1.868-3.611-0.812-0.651-1.816-0.892-2.986-0.717-1.15 0.172-2.102 0.816-2.751 1.863-0.849 1.365-1.066 3.277-0.555 4.871 1.518 6.873 4.341 32.347 5.097 40.876 0.065 0.732 0.114 1.464 0.162 2.17 0.151 2.259 0.3 4.294 0.905 5.819 0.093 0.354 0.228 0.708 0.421 1.061l0.098-0.055c0.193 0.282 0.406 0.545 0.663 0.764 0.811 0.692 1.867 0.967 3.226 0.84 2.907-0.27 4.771-3.283 6.417-5.941 0.747-1.209 1.454-2.352 2.116-2.959 2.116-1.948 3.313-2.164 3.693-1.981 4e-3 1e-3 8e-3 3e-3 0.012 6e-3 0.064 0.032 0.117 0.098 0.165 0.171 0.014 0.021 0.028 0.033 0.04 0.056 0.037 0.071 0.063 0.164 0.089 0.259 0.01 0.042 0.024 0.077 0.033 0.123 0.019 0.098 0.025 0.214 0.033 0.33 4e-3 0.061 0.013 0.114 0.014 0.179 2e-3 0.188-6e-3 0.393-0.028 0.615-6e-3 0.065-3e-3 0.131 9e-3 0.196 0.113 0.554 0.16 1.116 0.205 1.659 0.14 1.669 0.297 3.562 2.76 4.11 6.935 1.542 19.102-0.104 26.574-3.596v-1e-3s1e-3 0 1e-3 -1e-3c1e-3 0 3e-3 0 4e-3 -2e-3 4.255-1.989 5.574-3.828 5.042-7.024-0.033-0.197-0.085-0.436-0.146-0.69-0.012-0.05-0.023-0.098-0.035-0.149-0.062-0.252-0.134-0.522-0.214-0.809-0.017-0.06-0.034-0.12-0.051-0.179-0.079-0.277-0.163-0.563-0.252-0.858-0.011-0.032-0.02-0.065-0.031-0.1-0.097-0.314-0.198-0.635-0.301-0.957-0.025-0.08-0.05-0.159-0.077-0.238-0.102-0.317-0.205-0.631-0.307-0.936-0.018-0.055-0.036-0.105-0.054-0.159-0.093-0.277-0.185-0.548-0.273-0.807-0.019-0.052-0.037-0.106-0.054-0.159-0.096-0.28-0.186-0.537-0.27-0.778-0.018-0.053-0.036-0.103-0.053-0.151-0.084-0.239-0.16-0.456-0.224-0.636 17.921-6.355 56.503-7.588 71.134-8.053 15.313-0.487 52.46 1.856 69.872 8.043-0.528 1.319-1.739 4.396-2.378 6.459 0 0 0 1e-3 -1e-3 2e-3v2e-3c-2e-3 1e-3 -2e-3 4e-3 -2e-3 5e-3 -3e-3 6e-3 -3e-3 0.01-5e-3 0.016-0.313 0.979-0.415 1.746-0.186 2.483 0.04 0.144 0.081 0.286 0.148 0.421 7e-3 0.018 0.021 0.033 0.029 0.047 0.1 0.198 0.229 0.393 0.386 0.585 0.051 0.065 0.121 0.136 0.18 0.2 0.115 0.129 0.232 0.26 0.373 0.391 0.146 0.14 0.316 0.289 0.493 0.436 0.051 0.045 0.109 0.091 0.164 0.135 0.207 0.169 0.428 0.344 0.677 0.528 0.026 0.02 0.047 0.036 0.074 0.056 0.211 0.158 0.437 0.314 0.675 0.472 0.073 0.053 0.128 0.094 0.204 0.145 0.023 0.016 0.05 0.02 0.075 0.031 0.587 0.373 1.257 0.752 2.091 1.179 6.795 3.475 18.749 5.975 26.213 3.952 1.834-0.496 3.114-1.18 4.007-2.164 0.034-0.026 0.071-0.044 0.101-0.076 0.025-0.028 0.041-0.061 0.064-0.088-2e-3 3e-3 -2e-3 6e-3 -5e-3 9e-3 3e-3 -5e-3 5e-3 -9e-3 8e-3 -0.013 0.071-0.084 0.131-0.181 0.197-0.269 5e-3 -6e-3 8e-3 -0.011 0.013-0.017 0.932-1.249 1.291-2.875 1.395-4.91 0.107-1.582 0.079-3.459-0.012-5.723l0.135 0.013c1.167 0.094 1.972 0.167 3.159 0.375-0.319 1.24-1.013 3.94-1.493 5.812-0.031 0.049-0.076 0.088-0.092 0.147-0.208 0.741-0.268 1.056-0.323 1.361-0.025 0.144-0.053 0.283-0.095 0.472-0.272 1.204 8e-3 2.397 0.785 3.358 0.991 1.228 2.672 1.92 4.61 1.9 3.913-0.039 7.985-2.875 8.028-7.553 0.052-5.685 4.989-35.331 6.148-39.529 2.88-10.45-0.72-13.71-8.39-16.09zm-242.61 15.04c-0.409-1.284-0.24-2.805 0.405-3.842 0.448-0.721 1.066-1.146 1.836-1.261 0.807-0.121 1.454 0.024 1.979 0.444 0.911 0.729 1.483 2.352 1.652 4.693 1e-3 9e-3 9e-3 0.015 9e-3 0.023h-7e-3c0.791 7.201 3.595 38.558 4.781 44.489-1.868-0.422-3.784 0.044-4.942 1.308-0.067 0.072-0.118 0.151-0.179 0.228-0.1-0.861-0.166-1.797-0.232-2.783-0.048-0.714-0.098-1.452-0.164-2.199-0.76-8.57-3.597-34.13-5.138-41.1zm20.417 39.7c-0.019 5e-3 -0.031 0.019-0.048 0.027-1.164 0.36-2.412 1.312-3.405 2.226-0.794 0.732-1.546 1.946-2.342 3.233-1.485 2.399-3.168 5.119-5.428 5.33-0.99 0.093-1.729-0.083-2.259-0.535-0.332-0.282-0.585-0.68-0.787-1.155-0.191-0.776-0.014-1.499 0.528-2.091 0.839-0.913 2.639-1.5 4.607-0.625l1.305 0.58-0.417-1.367c-0.911-2.991-4.115-37.421-4.977-45.205l6e-3 -0.012c2.353-4.326 4.786-8.801 7.679-10 1.592-0.66 3.368-0.478 4.751 0.485 1.86 1.297 2.811 3.871 2.677 7.249 0 0.017 7e-3 0.032 8e-3 0.049h-8e-3c0.394 10.998 2.042 30.182 5.276 41.691-2.233-0.79-5.548-0.44-7.166 0.13zm7.64 8.1c0.054-7e-3 0.106-0.019 0.161-0.012-1.738-0.203-2.451-0.788-2.534-1.227-0.08-0.42 0.354-0.951 1.106-1.354 1.712-0.915 3.146-2.06 2.483-4.106l0.079-0.023c-3.491-11.941-5.252-31.342-5.708-42.561 4.495-0.13 13.834-2.005 17.027-3.108 2.465 10.505 4.285 29.37 5.697 39.87 8e-3 0.06 0.015 0.118 0.026 0.179 7e-3 0.058 0.018 0.116 0.025 0.174l0.018-2e-3c0.029 0.127 0.051 0.252 0.097 0.384 0.822 2.394 3.033 2.952 4.625 3.163 0.024 5e-3 0.048 6e-3 0.073 7e-3 1.41 0.029 2.39 0.556 2.558 1.371 0.187 0.908-0.632 2.281-2.878 3.304-5e-3 2e-3 -8e-3 4e-3 -0.013 5e-3 -6.31 2.94-16.016 4.54-22.853 3.94zm97.193-26.75c-14.853 0.474-54.308 1.729-72.155 8.348-3e-3 1e-3 -4e-3 3e-3 -8e-3 3e-3 -3e-3 2e-3 -6e-3 2e-3 -9e-3 4e-3 -1.999 0.804-4.444 1.793-5.77 3.236-1.398-9.852-3.154-28.245-5.516-38.223-0.975-8.819 1.347-12.002 5.408-14.276 6.892-3.857 49.936-8.284 78.064-8.028 26.628 0.241 70.928 4.027 77.562 8.762 4.195 2.994 5.899 5.734 3.562 12.405-5e-3 0.013-3e-3 0.025-6e-3 0.038l-6e-3 -1e-3c-3.11 10.917-4.747 30.25-4.695 38.323-1.418-0.914-3.33-1.55-4.822-2.042l-0.628-0.208c-17.51-6.49-54.93-8.85-70.95-8.34zm98.78 25.63c-6.937 1.88-18.67-0.478-25.278-3.856-0.834-0.426-1.494-0.802-2.062-1.165-0.611-0.528-1.245-1.257-1.253-2.014 4e-3 -0.107 0.015-0.217 0.045-0.326 0.227-0.827 1.201-1.408 2.049-1.572 0.037-7e-3 0.075-0.024 0.111-0.03 0.022-3e-3 0.041-0.01 0.062-0.013 3.334-0.524 5.357-2.333 5.284-4.731-0.251-7.958 1.339-27.471 4.461-38.625 6.018 2.275 14.053 3.251 19.535 3.223-0.856 5.598-2.177 20.151-3.467 25.507l-0.457 1.906-0.654 2.601c-0.766 2.985-1.719 6.698-1.983 9.407h-2e-3v4e-3c-0.265 2.615 1.579 4.682 4.93 5.529 1.258 0.318 2.099 0.811 2.311 1.352 0.113 0.293 0.044 0.639-0.211 1.026-0.77 0.84-1.87 1.34-3.43 1.76zm10.68-11.33c1.185 0.315 2.585 0.85 3.606 1.319l-1.101 4.296c-1.462-0.46-2.562-0.609-3.816-0.511 0.46-1.83 1.04-4.06 1.31-5.11zm15.03-34.65c-1.071 3.88-5.344 30.733-6.083 38.13-1.061-1.124-2.522-2.194-4.276-3.104-1.296-0.646-3.427-1.473-5.012-1.806-1.003-0.212-2.976-0.57-4.907-0.593h-0.013c-2.353 0.014-5.516 0.473-7.413 1.586 0.409-2.251 1.069-4.823 1.63-7.006l0.658-2.621 0.456-1.903c1.355-5.619 2.755-20.451 3.612-26.36 0.805-5.123 2.595-8.581 5.319-10.279 2.267-1.412 5.132-1.596 8.514-0.546 7.19 2.23 10.14 4.97 7.51 14.5z"/>
</svg>
